<?xml version="1.0" encoding="UTF-8"?>
<svg width="512" height="512" version="1.1" xml:space="preserve" xmlns="http://www.w3.org/2000/svg">
	<g style="fill: none; stroke: #000; stroke-linecap: round; stroke-linejoin: round; stroke-width: 23px;">
		<path id="edit" d="m311 72 131 124m-364 109 131 124m-154 26 23-150 233-232c26-26 64-26 109 19 45 45 45 82 23 105l-233 232z"/>
		<path id="translate" display="none" d="m108 331h49m56-11s3-79-11-101c-26-34-68-26-68-26m-83 127s-3-79 11-101c26-34 68-26 68-26m26 266v-127l15-120m-68 247v-127l-19-120m94-105c0 14-6 27-15 37-10 10-23 15-37 15s-27-6-37-15-15-23-15-37c0-14 6-27 15-37s23-15 37-15 27 6 37 15c10 10 15 23 15 37zm60 86-19-22 19-22m192 0 19 22-19 22m19-22h-229m139 94-23 19-23-19m0-191 23-19 23 19m-23-19v229"/>
		<path id="rotate" display="none" d="m108 331h49m56-11s3-79-11-101c-26-34-68-26-68-26m-83 127s-3-79 11-101c26-34 68-26 68-26m26 266v-127l15-120m-68 247v-127l-19-120m94-105c0 15-4 26-15 37-11 11-23 15-38 15-30 0-53-22-53-52 0-15 4-26 15-37 11-11 23-15 38-15s26 4 38 15 15 22 15 37zm68 49c0-41 26-79 64-94s83-7 109 22c30 30 38 71 23 109-15 37-53 64-94 64m-71-127-30 26-30-26m158 154-26-26 26-26"/>
		<path id="helper" display="none" d="m206 271c-49-4-90-45-98-94-8-49 19-97 64-116 45-19 98-7 128 34 30 41 30 94 3 131m19 229-41-101-56 49-0.3-244 173 172-75 7 41 101z"/>
		<path id="reset" display="none" d="m100 256c0-64 38-116 94-142 56-22 124-11 169 34 45 45 56 109 34 169-23 56-79 94-143 94m-105-139-49 45-49-45m98-60-49 45-49-45"/>
		<path id="fullscreen" display="none" d="m52 132 4-75 75-4m327 326-4 75-75 4m75-4-394-393m75 401-75-4-4-75m327-326 75 4 4 75m-4-75-398 397"/>
	</g>
</svg>
